<?xml version="1.0" encoding="UTF-8" standalone="no"?>
<!DOCTYPE svg PUBLIC "-//W3C//DTD SVG 1.1//EN" "http://www.w3.org/Graphics/SVG/1.1/DTD/svg11.dtd">
<svg version="1.1" xmlns:dc="http://purl.org/dc/elements/1.1/" xmlns="http://www.w3.org/2000/svg" xmlns:xl="http://www.w3.org/1999/xlink" viewBox="112 65 54.76308 32" width="54.76308" height="32">
  <defs/>
  <metadata> Produced by OmniGraffle 7.11.2 
    <dc:date>2019-09-07 06:27:36 +0000</dc:date>
  </metadata>
  <g id="Canvas_1" fill="none" stroke-opacity="1" stroke-dasharray="none" stroke="none" fill-opacity="1">
    <title>Canvas 1</title>
    <g id="Canvas_1: Layer 1">
      <title>Layer 1</title>
      <g id="Graphic_21">
        <path d="M 154.38033 84.39886 L 143.25212 84.39886 L 148.80461 70.97067 Z M 166.76308 97 L 166.76308 95.99171 C 165.66342 95.8833 164.83868 95.61613 164.28885 95.1902 C 163.73902 94.76428 163.30149 94.17961 162.97623 93.43617 L 161.53584 90.13721 L 151.01167 65.11616 L 150.10561 65.11616 L 140.95214 86.97763 C 140.28614 88.54194 139.91443 89.44024 139.837 89.67256 C 138.87672 92.13518 138.05586 93.7498 137.37438 94.51647 C 137.24933 94.65715 137.11229 94.78858 136.96325 94.91074 L 136.96325 94.91074 C 136.93022 94.93109 136.89689 94.95067 136.86327 94.9695 C 136.47607 95.18633 136.05015 95.29475 135.5855 95.29475 C 134.34645 95.29475 133.72693 94.56681 133.72693 93.11092 C 133.72693 92.77018 133.7579 92.34426 133.81986 91.83315 C 133.99023 90.37726 134.07541 89.31634 134.07541 88.65035 C 134.07541 86.18773 133.51785 84.23624 132.4027 82.79584 C 131.28755 81.35544 129.80845 80.63525 127.96535 80.63525 C 127.33034 80.63525 126.61789 80.7669 125.828 81.0302 C 126.01385 80.72043 127.36905 79.22584 129.89362 76.54639 C 132.4182 73.86693 134.70654 71.68313 136.75873 69.99492 C 138.81091 68.3067 140.13514 67.334834 140.73143 67.07928 C 141.32773 66.82372 141.87368 66.69595 142.3693 66.69595 C 143.08176 66.69595 143.5464 67.12187 143.76323 67.97372 C 143.98006 68.81008 144.46793 69.228255 145.22686 69.228255 C 145.70699 69.228255 146.12516 69.06176 146.4814 68.72876 C 146.83762 68.39577 147.01573 67.95823 147.01573 67.416145 C 147.01573 66.70369 146.7447 66.12289 146.2026 65.67373 C 145.66052 65.224575 144.97905 65 144.15818 65 C 142.12922 65 139.58145 66.273884 136.51479 68.82169 C 133.44813 71.3695 129.53742 75.34603 124.78255 80.75141 L 127.47748 71.83026 C 128.097 69.81679 128.581 68.554524 128.92949 68.04341 C 129.27797 67.5323 129.74261 67.16834 130.32342 66.9515 C 130.90423 66.73467 131.65926 66.62625 132.58855 66.62625 L 132.9138 65.55757 L 120.64722 65.55757 L 120.32197 66.62625 L 121.20479 66.62625 L 121.20479 66.62625 C 123.20277 66.62625 124.20174 67.176074 124.20174 68.275736 C 124.20174 68.67843 123.96168 69.65417 123.48154 71.20299 L 117.46441 91.06649 C 116.9533 92.70824 116.55449 93.77691 116.26796 94.27253 C 115.98142 94.76815 115.48968 95.17858 114.79271 95.50384 C 114.09574 95.82909 113.26714 95.99171 112.30687 95.99171 L 112 97 L 124.35951 97 L 124.66638 95.99171 C 122.23474 95.99171 121.01893 95.26378 121.01893 93.80789 C 121.01893 93.43617 121.24351 92.5069 121.69267 91.02003 L 122.85428 87.20995 C 123.55124 84.88672 124.18625 83.38052 124.75931 82.6913 C 125.33238 82.00207 126.10677 81.65746 127.08253 81.65746 C 128.0428 81.65746 128.83268 81.99046 129.45221 82.65645 C 130.07174 83.32244 130.3815 84.28269 130.3815 85.53724 C 130.3815 86.48202 130.19564 87.79849 129.82393 89.4867 C 129.4677 91.12845 129.28959 92.26682 129.28959 92.90183 C 129.28959 94.06345 129.66904 95.08178 130.42796 95.95686 C 130.84302 96.43544 131.3785 96.78316 132.03444 97 L 143.62384 97 L 143.62384 95.99171 C 142.6171 95.99171 141.79237 95.74778 141.14961 95.2599 C 140.50685 94.77202 140.18547 94.0557 140.18547 93.11092 C 140.18547 92.2281 140.7895 90.33857 141.99758 87.44227 L 142.81071 85.44431 L 154.77528 85.44431 L 157.19142 91.27558 C 157.90388 92.9638 158.2601 93.97826 158.2601 94.319 C 158.2601 94.98499 157.99294 95.43027 157.4586 95.65485 C 156.92425 95.87942 155.89817 95.99171 154.38033 95.99171 L 154.38033 97 Z M 137.74282 79.21577 C 136.81588 76.9994 134.18828 77.50819 134.17436 80.07306 C 134.16044 81.51579 135.42889 82.02451 136.26526 82.59603 C 137.07373 83.14664 137.65917 83.89937 137.74282 84.20605 C 137.82646 83.89937 138.46765 83.11881 139.22038 82.5682 C 140.04284 81.96184 141.3252 81.47396 141.31128 80.07306 C 141.29736 77.48728 138.62102 77.07612 137.74282 79.21577 Z" fill="#b2bbc0"/>
      </g>
    </g>
  </g>
</svg>
